<?xml version="1.0" encoding="UTF-8"?>
<svg width="24px" height="26px" viewBox="0 0 24 26" version="1.1" xmlns="http://www.w3.org/2000/svg" xmlns:xlink="http://www.w3.org/1999/xlink">
    <!-- Generator: Sketch 63.1 (92452) - https://sketch.com -->
    <title>全部待办</title>
    <desc>Created with Sketch.</desc>
    <g id="企业上云" stroke="none" stroke-width="1" fill="none" fill-rule="evenodd">
        <g id="首页备份-3" transform="translate(-349.000000, -142.000000)" fill="#FFC107">
            <g id="待办事项" transform="translate(264.000000, 83.000000)">
                <g id="全部待办" transform="translate(67.000000, 43.000000)">
                    <g id="编组-4" transform="translate(18.000000, 16.000000)">
                        <path d="M12.750275,1 C14.0633067,1 14.8,1.73727893 14.8,2.69279928 L14.8,6.44599595 L14.8,6.44599595 C14.8,7.35244789 15.4273379,8.2 16.4,8.2 L19.9905687,8.2 L19.9905687,8.2 C21.0456,8.2 22,8.7271665 22,10.0637123 L22,22.6 L22,22.6 C22,23.9254834 20.9254834,25 19.6,25 L4.4,25 C3.0745166,25 2,23.9254834 2,22.6 L2,3.39999193 C2,2.07451299 3.07452106,1 4.4,1 L12.750275,1 L12.750275,1 Z M16.8,17 L7.2,17 C6.5372583,17 6,17.5372583 6,18.2 C6,18.8627417 6.5372583,19.4 7.2,19.4 L7.2,19.4 L16.8,19.4 C17.4627417,19.4 18,18.8627417 18,18.2 C18,17.5372583 17.4627417,17 16.8,17 L16.8,17 Z M16.8,11.4 L7.2,11.4 C6.5372583,11.4 6,11.9372583 6,12.6 C6,13.2627417 6.5372583,13.8 7.2,13.8 L7.2,13.8 L16.8,13.8 C17.4627417,13.8 18,13.2627417 18,12.6 C18,11.9372583 17.4627417,11.4 16.8,11.4 L16.8,11.4 Z" id="形状结合" fill-opacity="0.9"></path>
                        <path d="M16.4,1.8 L21.0456,6.4456 L17.2003959,6.44599595 C16.7585681,6.44599595 16.4003959,6.08782375 16.4003959,5.64599595 L16.4,1.8 Z" id="路径" fill-opacity="0.4"></path>
                    </g>
                </g>
            </g>
        </g>
    </g>
</svg>